<?xml version="1.0" encoding="UTF-8"?>
<svg width="65px" height="42px" viewBox="0 0 65 42" version="1.1" xmlns="http://www.w3.org/2000/svg" xmlns:xlink="http://www.w3.org/1999/xlink">
    <!-- Generator: Sketch 46.2 (44496) - http://www.bohemiancoding.com/sketch -->
    <title>logo/small</title>
    <desc>Created with Sketch.</desc>
    <defs></defs>
    <g id="Symbols" stroke="none" stroke-width="1" fill="none" fill-rule="evenodd">
        <g id="logo/small">
            <path d="M56.5177936,28.2470588 C55.4128114,32.9823529 49.519573,41.3823529 49.519573,41.3823529 C49.2740214,41.7117647 48.905694,41.3823529 48.905694,41.3823529 C48.6601423,41.1764706 48.905694,40.8470588 48.905694,40.8470588 C49.519573,39.4882353 50.1743772,38.1294118 50.9519573,36.4823529 C54.8807829,28.4941176 51.4021352,20.8764706 51.4021352,20.8764706 C50.2153025,18.1176471 46.3683274,16.4294118 43.4217082,17.1705882 C38.1014235,18.4882353 32.0035587,24.5 32.0035587,24.5 C31.6352313,23.5529412 31.6352313,23.5941176 31.4715302,22.8529412 C35.0729537,18.7764706 41.252669,14.4529412 46.5320285,12.1058824 C52.5071174,9.47058824 57.1725979,13.2176471 57.1725979,19.8882353 C57.1725979,24.0058824 57.3362989,24.7058824 56.5177936,28.2470588 Z M24.0231317,26.4352941 C24.1868327,27.6294118 24.4733096,28.7 24.9234875,29.6058824 C24.3505338,30.1411765 23.2046263,30.6352941 21.1992883,31.2117647 C17.6797153,32.2 14.0782918,33.2294118 10.5177936,33.2705882 C5.77046263,33.3117647 2.29181495,28.9058824 3.35587189,24.6235294 C3.76512456,22.9764706 5.23843416,21.5764706 6.62989324,19.5176471 C10.0266904,28.2058824 13.3825623,28.5764706 24.0231317,26.4352941 Z" id="Combined-Shape" fill="#F8AD32"></path>
            <path d="M2.37366548,13.6705882 C6.58896797,9.59411765 11.3772242,7.12352941 17.1067616,6.62941176 C21.8131673,6.17647059 25.3327402,9.47058824 25.3736655,14.2470588 C25.3736655,15.7705882 25.2918149,17.3352941 25.0462633,18.8588235 C23.0409253,31.2117647 28.0747331,36.1117647 40.5160142,35.8647059 C43.7081851,35.7823529 46.7366548,35.3705882 50.2153025,34.7117647 C50.2153025,34.7117647 57.2953737,33.2294118 60.9786477,29.9764706 C62.1654804,28.9470588 63.2295374,27.6294118 64.2935943,26.4764706 C64.5800712,25.6529412 63.7206406,25.9411765 63.7206406,25.9411765 C55.9857651,29.6470588 51.36121,30.3470588 51.36121,30.3470588 C45.9590747,31.1705882 40.5569395,31.7470588 35.4003559,28.9882353 C31.8807829,27.1352941 30.4483986,24.0470588 30.816726,20.0941176 C31.1032028,16.7588235 31.6352313,13.4235294 31.4715302,10.1294118 C31.1032028,2.84117647 25.7829181,-0.905882353 18.702847,0.823529412 C11.1316726,2.71764706 5.85231317,7.65882353 0.941281139,13.5470588 C-0.368327402,15.1117647 0.0818505338,15.3176471 0.0818505338,15.3176471 C0.0818505338,15.3176471 0.450177936,15.5235294 2.37366548,13.6705882 L2.37366548,13.6705882 Z" id="Shape" fill="#FFFFFF"></path>
        </g>
    </g>
</svg>